%TF.GenerationSoftware,KiCad,Pcbnew,10.0.4*%
%TF.CreationDate,2026-08-08T14:24:34-05:00*%
%TF.ProjectId,macropad,6d616372-6f70-4616-942e-6b696361645f,rev?*%
%TF.SameCoordinates,Original*%
%TF.FileFunction,Profile,NP*%
%FSLAX46Y46*%
G04 Gerber Fmt 4.6, Leading zero omitted, Abs format (unit mm)*
G04 Created by KiCad (PCBNEW 10.0.4) date 2026-08-08 14:24:34*
%MOMM*%
%LPD*%
G01*
G04 APERTURE LIST*
%TA.AperFunction,Profile*%
%ADD10C,0.400000*%
%TD*%
%TA.AperFunction,Profile*%
%ADD11C,0.120000*%
%TD*%
G04 APERTURE END LIST*
D10*
X35537500Y-48945000D02*
X35537500Y-52382990D01*
X35537500Y-48945000D02*
G75*
G02*
X40537500Y-43945000I5000000J0D01*
G01*
X35537500Y-150857010D02*
X35537500Y-52382990D01*
X35537500Y-154295000D02*
X35537500Y-150857010D01*
X40537500Y-159295000D02*
G75*
G02*
X35537500Y-154295000I0J5000000D01*
G01*
X41577665Y-43945000D02*
X40537500Y-43945000D01*
X41577665Y-43945000D02*
X121797335Y-43945000D01*
X41577665Y-159295000D02*
X40537500Y-159295000D01*
X121797335Y-159295000D02*
X41577665Y-159295000D01*
X121797335Y-159295000D02*
X122837500Y-159295000D01*
X122837500Y-43945000D02*
X121797335Y-43945000D01*
X122837500Y-43945000D02*
G75*
G02*
X127837500Y-48945000I0J-5000000D01*
G01*
X127837500Y-52382990D02*
X127837500Y-48945000D01*
X127837500Y-52382990D02*
X127837500Y-150857010D01*
X127837500Y-154295000D02*
G75*
G02*
X122837500Y-159295000I-5000000J0D01*
G01*
X127837500Y-154295000D02*
X127837500Y-150857010D01*
%TO.C,L1*%
D11*
X54856434Y-74456655D02*
G75*
G02*
X54812524Y-74300353I256066J156255D01*
G01*
X54856434Y-74456655D02*
G75*
G02*
X54169155Y-75143934I-426774J-260505D01*
G01*
X54812500Y-72899647D02*
G75*
G02*
X54856435Y-72743346I299680J87D01*
G01*
X54169155Y-72056066D02*
G75*
G02*
X54856434Y-72743345I260505J-426774D01*
G01*
X54169155Y-72056066D02*
G75*
G02*
X54012853Y-72099976I-156255J256066D01*
G01*
X54012853Y-75100000D02*
G75*
G02*
X54169156Y-75143933I-3J-300020D01*
G01*
X52212147Y-72100000D02*
G75*
G02*
X52055845Y-72056066I-3J299992D01*
G01*
X52055845Y-75143934D02*
G75*
G02*
X52212147Y-75100000I156299J-256058D01*
G01*
X52055845Y-75143934D02*
G75*
G02*
X51368566Y-74456655I-260503J426776D01*
G01*
X51412500Y-74300353D02*
G75*
G02*
X51368566Y-74456655I-299992J-3D01*
G01*
X51368566Y-72743345D02*
G75*
G02*
X52055845Y-72056066I426776J260503D01*
G01*
X51368566Y-72743345D02*
G75*
G02*
X51412500Y-72899647I-256058J-156299D01*
G01*
X54812500Y-73600000D02*
X54812500Y-74300353D01*
X54812500Y-73600000D02*
X54812500Y-72899647D01*
X53112500Y-75100000D02*
X54012853Y-75100000D01*
X53112500Y-75100000D02*
X52212147Y-75100000D01*
X53112500Y-72100000D02*
X54012853Y-72100000D01*
X53112500Y-72100000D02*
X52212147Y-72100000D01*
X51412500Y-73600000D02*
X51412500Y-74300353D01*
X51412500Y-73600000D02*
X51412500Y-72899647D01*
%TO.C,L5*%
X54856434Y-93506655D02*
G75*
G02*
X54812524Y-93350353I256066J156255D01*
G01*
X54856434Y-93506655D02*
G75*
G02*
X54169155Y-94193934I-426774J-260505D01*
G01*
X54812500Y-91949647D02*
G75*
G02*
X54856435Y-91793346I299680J87D01*
G01*
X54169155Y-91106066D02*
G75*
G02*
X54856434Y-91793345I260505J-426774D01*
G01*
X54169155Y-91106066D02*
G75*
G02*
X54012853Y-91149976I-156255J256066D01*
G01*
X54012853Y-94150000D02*
G75*
G02*
X54169156Y-94193933I-3J-300020D01*
G01*
X52212147Y-91150000D02*
G75*
G02*
X52055845Y-91106066I-3J299992D01*
G01*
X52055845Y-94193934D02*
G75*
G02*
X52212147Y-94150000I156299J-256058D01*
G01*
X52055845Y-94193934D02*
G75*
G02*
X51368566Y-93506655I-260503J426776D01*
G01*
X51412500Y-93350353D02*
G75*
G02*
X51368566Y-93506655I-299992J-3D01*
G01*
X51368566Y-91793345D02*
G75*
G02*
X52055845Y-91106066I426776J260503D01*
G01*
X51368566Y-91793345D02*
G75*
G02*
X51412500Y-91949647I-256058J-156299D01*
G01*
X54812500Y-92650000D02*
X54812500Y-93350353D01*
X54812500Y-92650000D02*
X54812500Y-91949647D01*
X53112500Y-94150000D02*
X54012853Y-94150000D01*
X53112500Y-94150000D02*
X52212147Y-94150000D01*
X53112500Y-91150000D02*
X54012853Y-91150000D01*
X53112500Y-91150000D02*
X52212147Y-91150000D01*
X51412500Y-92650000D02*
X51412500Y-93350353D01*
X51412500Y-92650000D02*
X51412500Y-91949647D01*
%TO.C,L12*%
X108562500Y-111700000D02*
X108562500Y-110999647D01*
X108562500Y-111700000D02*
X108562500Y-112400353D01*
X110262500Y-110200000D02*
X109362147Y-110200000D01*
X110262500Y-110200000D02*
X111162853Y-110200000D01*
X110262500Y-113200000D02*
X109362147Y-113200000D01*
X110262500Y-113200000D02*
X111162853Y-113200000D01*
X111962500Y-111700000D02*
X111962500Y-110999647D01*
X111962500Y-111700000D02*
X111962500Y-112400353D01*
X108518566Y-110843345D02*
G75*
G02*
X108562500Y-110999647I-256058J-156299D01*
G01*
X108518566Y-110843345D02*
G75*
G02*
X109205845Y-110156066I426776J260503D01*
G01*
X108562500Y-112400353D02*
G75*
G02*
X108518566Y-112556655I-299992J-3D01*
G01*
X109205845Y-113243934D02*
G75*
G02*
X108518566Y-112556655I-260503J426776D01*
G01*
X109205845Y-113243934D02*
G75*
G02*
X109362147Y-113200000I156299J-256058D01*
G01*
X109362147Y-110200000D02*
G75*
G02*
X109205845Y-110156066I-3J299992D01*
G01*
X111162853Y-113200000D02*
G75*
G02*
X111319156Y-113243933I-3J-300020D01*
G01*
X111319155Y-110156066D02*
G75*
G02*
X111162853Y-110199976I-156255J256066D01*
G01*
X111319155Y-110156066D02*
G75*
G02*
X112006434Y-110843345I260505J-426774D01*
G01*
X111962500Y-110999647D02*
G75*
G02*
X112006435Y-110843346I299680J87D01*
G01*
X112006434Y-112556655D02*
G75*
G02*
X111319155Y-113243934I-426774J-260505D01*
G01*
X112006434Y-112556655D02*
G75*
G02*
X111962524Y-112400353I256066J156255D01*
G01*
%TO.C,L20*%
X108562500Y-149800000D02*
X108562500Y-149099647D01*
X108562500Y-149800000D02*
X108562500Y-150500353D01*
X110262500Y-148300000D02*
X109362147Y-148300000D01*
X110262500Y-148300000D02*
X111162853Y-148300000D01*
X110262500Y-151300000D02*
X109362147Y-151300000D01*
X110262500Y-151300000D02*
X111162853Y-151300000D01*
X111962500Y-149800000D02*
X111962500Y-149099647D01*
X111962500Y-149800000D02*
X111962500Y-150500353D01*
X108518566Y-148943345D02*
G75*
G02*
X108562500Y-149099647I-256058J-156299D01*
G01*
X108518566Y-148943345D02*
G75*
G02*
X109205845Y-148256066I426776J260503D01*
G01*
X108562500Y-150500353D02*
G75*
G02*
X108518566Y-150656655I-299992J-3D01*
G01*
X109205845Y-151343934D02*
G75*
G02*
X108518566Y-150656655I-260503J426776D01*
G01*
X109205845Y-151343934D02*
G75*
G02*
X109362147Y-151300000I156299J-256058D01*
G01*
X109362147Y-148300000D02*
G75*
G02*
X109205845Y-148256066I-3J299992D01*
G01*
X111162853Y-151300000D02*
G75*
G02*
X111319156Y-151343933I-3J-300020D01*
G01*
X111319155Y-148256066D02*
G75*
G02*
X111162853Y-148299976I-156255J256066D01*
G01*
X111319155Y-148256066D02*
G75*
G02*
X112006434Y-148943345I260505J-426774D01*
G01*
X111962500Y-149099647D02*
G75*
G02*
X112006435Y-148943346I299680J87D01*
G01*
X112006434Y-150656655D02*
G75*
G02*
X111319155Y-151343934I-426774J-260505D01*
G01*
X112006434Y-150656655D02*
G75*
G02*
X111962524Y-150500353I256066J156255D01*
G01*
%TO.C,L10*%
X70462500Y-111700000D02*
X70462500Y-110999647D01*
X70462500Y-111700000D02*
X70462500Y-112400353D01*
X72162500Y-110200000D02*
X71262147Y-110200000D01*
X72162500Y-110200000D02*
X73062853Y-110200000D01*
X72162500Y-113200000D02*
X71262147Y-113200000D01*
X72162500Y-113200000D02*
X73062853Y-113200000D01*
X73862500Y-111700000D02*
X73862500Y-110999647D01*
X73862500Y-111700000D02*
X73862500Y-112400353D01*
X70418566Y-110843345D02*
G75*
G02*
X70462500Y-110999647I-256058J-156299D01*
G01*
X70418566Y-110843345D02*
G75*
G02*
X71105845Y-110156066I426776J260503D01*
G01*
X70462500Y-112400353D02*
G75*
G02*
X70418566Y-112556655I-299992J-3D01*
G01*
X71105845Y-113243934D02*
G75*
G02*
X70418566Y-112556655I-260503J426776D01*
G01*
X71105845Y-113243934D02*
G75*
G02*
X71262147Y-113200000I156299J-256058D01*
G01*
X71262147Y-110200000D02*
G75*
G02*
X71105845Y-110156066I-3J299992D01*
G01*
X73062853Y-113200000D02*
G75*
G02*
X73219156Y-113243933I-3J-300020D01*
G01*
X73219155Y-110156066D02*
G75*
G02*
X73062853Y-110199976I-156255J256066D01*
G01*
X73219155Y-110156066D02*
G75*
G02*
X73906434Y-110843345I260505J-426774D01*
G01*
X73862500Y-110999647D02*
G75*
G02*
X73906435Y-110843346I299680J87D01*
G01*
X73906434Y-112556655D02*
G75*
G02*
X73219155Y-113243934I-426774J-260505D01*
G01*
X73906434Y-112556655D02*
G75*
G02*
X73862524Y-112400353I256066J156255D01*
G01*
%TO.C,L4*%
X108562500Y-73600000D02*
X108562500Y-72899647D01*
X108562500Y-73600000D02*
X108562500Y-74300353D01*
X110262500Y-72100000D02*
X109362147Y-72100000D01*
X110262500Y-72100000D02*
X111162853Y-72100000D01*
X110262500Y-75100000D02*
X109362147Y-75100000D01*
X110262500Y-75100000D02*
X111162853Y-75100000D01*
X111962500Y-73600000D02*
X111962500Y-72899647D01*
X111962500Y-73600000D02*
X111962500Y-74300353D01*
X108518566Y-72743345D02*
G75*
G02*
X108562500Y-72899647I-256058J-156299D01*
G01*
X108518566Y-72743345D02*
G75*
G02*
X109205845Y-72056066I426776J260503D01*
G01*
X108562500Y-74300353D02*
G75*
G02*
X108518566Y-74456655I-299992J-3D01*
G01*
X109205845Y-75143934D02*
G75*
G02*
X108518566Y-74456655I-260503J426776D01*
G01*
X109205845Y-75143934D02*
G75*
G02*
X109362147Y-75100000I156299J-256058D01*
G01*
X109362147Y-72100000D02*
G75*
G02*
X109205845Y-72056066I-3J299992D01*
G01*
X111162853Y-75100000D02*
G75*
G02*
X111319156Y-75143933I-3J-300020D01*
G01*
X111319155Y-72056066D02*
G75*
G02*
X111162853Y-72099976I-156255J256066D01*
G01*
X111319155Y-72056066D02*
G75*
G02*
X112006434Y-72743345I260505J-426774D01*
G01*
X111962500Y-72899647D02*
G75*
G02*
X112006435Y-72743346I299680J87D01*
G01*
X112006434Y-74456655D02*
G75*
G02*
X111319155Y-75143934I-426774J-260505D01*
G01*
X112006434Y-74456655D02*
G75*
G02*
X111962524Y-74300353I256066J156255D01*
G01*
%TO.C,L3*%
X89512500Y-73600000D02*
X89512500Y-72899647D01*
X89512500Y-73600000D02*
X89512500Y-74300353D01*
X91212500Y-72100000D02*
X90312147Y-72100000D01*
X91212500Y-72100000D02*
X92112853Y-72100000D01*
X91212500Y-75100000D02*
X90312147Y-75100000D01*
X91212500Y-75100000D02*
X92112853Y-75100000D01*
X92912500Y-73600000D02*
X92912500Y-72899647D01*
X92912500Y-73600000D02*
X92912500Y-74300353D01*
X89468566Y-72743345D02*
G75*
G02*
X89512500Y-72899647I-256058J-156299D01*
G01*
X89468566Y-72743345D02*
G75*
G02*
X90155845Y-72056066I426776J260503D01*
G01*
X89512500Y-74300353D02*
G75*
G02*
X89468566Y-74456655I-299992J-3D01*
G01*
X90155845Y-75143934D02*
G75*
G02*
X89468566Y-74456655I-260503J426776D01*
G01*
X90155845Y-75143934D02*
G75*
G02*
X90312147Y-75100000I156299J-256058D01*
G01*
X90312147Y-72100000D02*
G75*
G02*
X90155845Y-72056066I-3J299992D01*
G01*
X92112853Y-75100000D02*
G75*
G02*
X92269156Y-75143933I-3J-300020D01*
G01*
X92269155Y-72056066D02*
G75*
G02*
X92112853Y-72099976I-156255J256066D01*
G01*
X92269155Y-72056066D02*
G75*
G02*
X92956434Y-72743345I260505J-426774D01*
G01*
X92912500Y-72899647D02*
G75*
G02*
X92956435Y-72743346I299680J87D01*
G01*
X92956434Y-74456655D02*
G75*
G02*
X92269155Y-75143934I-426774J-260505D01*
G01*
X92956434Y-74456655D02*
G75*
G02*
X92912524Y-74300353I256066J156255D01*
G01*
%TO.C,L6*%
X70462500Y-92650000D02*
X70462500Y-91949647D01*
X70462500Y-92650000D02*
X70462500Y-93350353D01*
X72162500Y-91150000D02*
X71262147Y-91150000D01*
X72162500Y-91150000D02*
X73062853Y-91150000D01*
X72162500Y-94150000D02*
X71262147Y-94150000D01*
X72162500Y-94150000D02*
X73062853Y-94150000D01*
X73862500Y-92650000D02*
X73862500Y-91949647D01*
X73862500Y-92650000D02*
X73862500Y-93350353D01*
X70418566Y-91793345D02*
G75*
G02*
X70462500Y-91949647I-256058J-156299D01*
G01*
X70418566Y-91793345D02*
G75*
G02*
X71105845Y-91106066I426776J260503D01*
G01*
X70462500Y-93350353D02*
G75*
G02*
X70418566Y-93506655I-299992J-3D01*
G01*
X71105845Y-94193934D02*
G75*
G02*
X70418566Y-93506655I-260503J426776D01*
G01*
X71105845Y-94193934D02*
G75*
G02*
X71262147Y-94150000I156299J-256058D01*
G01*
X71262147Y-91150000D02*
G75*
G02*
X71105845Y-91106066I-3J299992D01*
G01*
X73062853Y-94150000D02*
G75*
G02*
X73219156Y-94193933I-3J-300020D01*
G01*
X73219155Y-91106066D02*
G75*
G02*
X73062853Y-91149976I-156255J256066D01*
G01*
X73219155Y-91106066D02*
G75*
G02*
X73906434Y-91793345I260505J-426774D01*
G01*
X73862500Y-91949647D02*
G75*
G02*
X73906435Y-91793346I299680J87D01*
G01*
X73906434Y-93506655D02*
G75*
G02*
X73219155Y-94193934I-426774J-260505D01*
G01*
X73906434Y-93506655D02*
G75*
G02*
X73862524Y-93350353I256066J156255D01*
G01*
%TO.C,L17*%
X51412500Y-149800000D02*
X51412500Y-149099647D01*
X51412500Y-149800000D02*
X51412500Y-150500353D01*
X53112500Y-148300000D02*
X52212147Y-148300000D01*
X53112500Y-148300000D02*
X54012853Y-148300000D01*
X53112500Y-151300000D02*
X52212147Y-151300000D01*
X53112500Y-151300000D02*
X54012853Y-151300000D01*
X54812500Y-149800000D02*
X54812500Y-149099647D01*
X54812500Y-149800000D02*
X54812500Y-150500353D01*
X51368566Y-148943345D02*
G75*
G02*
X51412500Y-149099647I-256058J-156299D01*
G01*
X51368566Y-148943345D02*
G75*
G02*
X52055845Y-148256066I426776J260503D01*
G01*
X51412500Y-150500353D02*
G75*
G02*
X51368566Y-150656655I-299992J-3D01*
G01*
X52055845Y-151343934D02*
G75*
G02*
X51368566Y-150656655I-260503J426776D01*
G01*
X52055845Y-151343934D02*
G75*
G02*
X52212147Y-151300000I156299J-256058D01*
G01*
X52212147Y-148300000D02*
G75*
G02*
X52055845Y-148256066I-3J299992D01*
G01*
X54012853Y-151300000D02*
G75*
G02*
X54169156Y-151343933I-3J-300020D01*
G01*
X54169155Y-148256066D02*
G75*
G02*
X54012853Y-148299976I-156255J256066D01*
G01*
X54169155Y-148256066D02*
G75*
G02*
X54856434Y-148943345I260505J-426774D01*
G01*
X54812500Y-149099647D02*
G75*
G02*
X54856435Y-148943346I299680J87D01*
G01*
X54856434Y-150656655D02*
G75*
G02*
X54169155Y-151343934I-426774J-260505D01*
G01*
X54856434Y-150656655D02*
G75*
G02*
X54812524Y-150500353I256066J156255D01*
G01*
%TO.C,L14*%
X70462500Y-130750000D02*
X70462500Y-130049647D01*
X70462500Y-130750000D02*
X70462500Y-131450353D01*
X72162500Y-129250000D02*
X71262147Y-129250000D01*
X72162500Y-129250000D02*
X73062853Y-129250000D01*
X72162500Y-132250000D02*
X71262147Y-132250000D01*
X72162500Y-132250000D02*
X73062853Y-132250000D01*
X73862500Y-130750000D02*
X73862500Y-130049647D01*
X73862500Y-130750000D02*
X73862500Y-131450353D01*
X70418566Y-129893345D02*
G75*
G02*
X70462500Y-130049647I-256058J-156299D01*
G01*
X70418566Y-129893345D02*
G75*
G02*
X71105845Y-129206066I426776J260503D01*
G01*
X70462500Y-131450353D02*
G75*
G02*
X70418566Y-131606655I-299992J-3D01*
G01*
X71105845Y-132293934D02*
G75*
G02*
X70418566Y-131606655I-260503J426776D01*
G01*
X71105845Y-132293934D02*
G75*
G02*
X71262147Y-132250000I156299J-256058D01*
G01*
X71262147Y-129250000D02*
G75*
G02*
X71105845Y-129206066I-3J299992D01*
G01*
X73062853Y-132250000D02*
G75*
G02*
X73219156Y-132293933I-3J-300020D01*
G01*
X73219155Y-129206066D02*
G75*
G02*
X73062853Y-129249976I-156255J256066D01*
G01*
X73219155Y-129206066D02*
G75*
G02*
X73906434Y-129893345I260505J-426774D01*
G01*
X73862500Y-130049647D02*
G75*
G02*
X73906435Y-129893346I299680J87D01*
G01*
X73906434Y-131606655D02*
G75*
G02*
X73219155Y-132293934I-426774J-260505D01*
G01*
X73906434Y-131606655D02*
G75*
G02*
X73862524Y-131450353I256066J156255D01*
G01*
%TO.C,L16*%
X108562500Y-130750000D02*
X108562500Y-130049647D01*
X108562500Y-130750000D02*
X108562500Y-131450353D01*
X110262500Y-129250000D02*
X109362147Y-129250000D01*
X110262500Y-129250000D02*
X111162853Y-129250000D01*
X110262500Y-132250000D02*
X109362147Y-132250000D01*
X110262500Y-132250000D02*
X111162853Y-132250000D01*
X111962500Y-130750000D02*
X111962500Y-130049647D01*
X111962500Y-130750000D02*
X111962500Y-131450353D01*
X108518566Y-129893345D02*
G75*
G02*
X108562500Y-130049647I-256058J-156299D01*
G01*
X108518566Y-129893345D02*
G75*
G02*
X109205845Y-129206066I426776J260503D01*
G01*
X108562500Y-131450353D02*
G75*
G02*
X108518566Y-131606655I-299992J-3D01*
G01*
X109205845Y-132293934D02*
G75*
G02*
X108518566Y-131606655I-260503J426776D01*
G01*
X109205845Y-132293934D02*
G75*
G02*
X109362147Y-132250000I156299J-256058D01*
G01*
X109362147Y-129250000D02*
G75*
G02*
X109205845Y-129206066I-3J299992D01*
G01*
X111162853Y-132250000D02*
G75*
G02*
X111319156Y-132293933I-3J-300020D01*
G01*
X111319155Y-129206066D02*
G75*
G02*
X111162853Y-129249976I-156255J256066D01*
G01*
X111319155Y-129206066D02*
G75*
G02*
X112006434Y-129893345I260505J-426774D01*
G01*
X111962500Y-130049647D02*
G75*
G02*
X112006435Y-129893346I299680J87D01*
G01*
X112006434Y-131606655D02*
G75*
G02*
X111319155Y-132293934I-426774J-260505D01*
G01*
X112006434Y-131606655D02*
G75*
G02*
X111962524Y-131450353I256066J156255D01*
G01*
%TO.C,L15*%
X89512500Y-130750000D02*
X89512500Y-130049647D01*
X89512500Y-130750000D02*
X89512500Y-131450353D01*
X91212500Y-129250000D02*
X90312147Y-129250000D01*
X91212500Y-129250000D02*
X92112853Y-129250000D01*
X91212500Y-132250000D02*
X90312147Y-132250000D01*
X91212500Y-132250000D02*
X92112853Y-132250000D01*
X92912500Y-130750000D02*
X92912500Y-130049647D01*
X92912500Y-130750000D02*
X92912500Y-131450353D01*
X89468566Y-129893345D02*
G75*
G02*
X89512500Y-130049647I-256058J-156299D01*
G01*
X89468566Y-129893345D02*
G75*
G02*
X90155845Y-129206066I426776J260503D01*
G01*
X89512500Y-131450353D02*
G75*
G02*
X89468566Y-131606655I-299992J-3D01*
G01*
X90155845Y-132293934D02*
G75*
G02*
X89468566Y-131606655I-260503J426776D01*
G01*
X90155845Y-132293934D02*
G75*
G02*
X90312147Y-132250000I156299J-256058D01*
G01*
X90312147Y-129250000D02*
G75*
G02*
X90155845Y-129206066I-3J299992D01*
G01*
X92112853Y-132250000D02*
G75*
G02*
X92269156Y-132293933I-3J-300020D01*
G01*
X92269155Y-129206066D02*
G75*
G02*
X92112853Y-129249976I-156255J256066D01*
G01*
X92269155Y-129206066D02*
G75*
G02*
X92956434Y-129893345I260505J-426774D01*
G01*
X92912500Y-130049647D02*
G75*
G02*
X92956435Y-129893346I299680J87D01*
G01*
X92956434Y-131606655D02*
G75*
G02*
X92269155Y-132293934I-426774J-260505D01*
G01*
X92956434Y-131606655D02*
G75*
G02*
X92912524Y-131450353I256066J156255D01*
G01*
%TO.C,L19*%
X89512500Y-149800000D02*
X89512500Y-149099647D01*
X89512500Y-149800000D02*
X89512500Y-150500353D01*
X91212500Y-148300000D02*
X90312147Y-148300000D01*
X91212500Y-148300000D02*
X92112853Y-148300000D01*
X91212500Y-151300000D02*
X90312147Y-151300000D01*
X91212500Y-151300000D02*
X92112853Y-151300000D01*
X92912500Y-149800000D02*
X92912500Y-149099647D01*
X92912500Y-149800000D02*
X92912500Y-150500353D01*
X89468566Y-148943345D02*
G75*
G02*
X89512500Y-149099647I-256058J-156299D01*
G01*
X89468566Y-148943345D02*
G75*
G02*
X90155845Y-148256066I426776J260503D01*
G01*
X89512500Y-150500353D02*
G75*
G02*
X89468566Y-150656655I-299992J-3D01*
G01*
X90155845Y-151343934D02*
G75*
G02*
X89468566Y-150656655I-260503J426776D01*
G01*
X90155845Y-151343934D02*
G75*
G02*
X90312147Y-151300000I156299J-256058D01*
G01*
X90312147Y-148300000D02*
G75*
G02*
X90155845Y-148256066I-3J299992D01*
G01*
X92112853Y-151300000D02*
G75*
G02*
X92269156Y-151343933I-3J-300020D01*
G01*
X92269155Y-148256066D02*
G75*
G02*
X92112853Y-148299976I-156255J256066D01*
G01*
X92269155Y-148256066D02*
G75*
G02*
X92956434Y-148943345I260505J-426774D01*
G01*
X92912500Y-149099647D02*
G75*
G02*
X92956435Y-148943346I299680J87D01*
G01*
X92956434Y-150656655D02*
G75*
G02*
X92269155Y-151343934I-426774J-260505D01*
G01*
X92956434Y-150656655D02*
G75*
G02*
X92912524Y-150500353I256066J156255D01*
G01*
%TO.C,L18*%
X70462500Y-149800000D02*
X70462500Y-149099647D01*
X70462500Y-149800000D02*
X70462500Y-150500353D01*
X72162500Y-148300000D02*
X71262147Y-148300000D01*
X72162500Y-148300000D02*
X73062853Y-148300000D01*
X72162500Y-151300000D02*
X71262147Y-151300000D01*
X72162500Y-151300000D02*
X73062853Y-151300000D01*
X73862500Y-149800000D02*
X73862500Y-149099647D01*
X73862500Y-149800000D02*
X73862500Y-150500353D01*
X70418566Y-148943345D02*
G75*
G02*
X70462500Y-149099647I-256058J-156299D01*
G01*
X70418566Y-148943345D02*
G75*
G02*
X71105845Y-148256066I426776J260503D01*
G01*
X70462500Y-150500353D02*
G75*
G02*
X70418566Y-150656655I-299992J-3D01*
G01*
X71105845Y-151343934D02*
G75*
G02*
X70418566Y-150656655I-260503J426776D01*
G01*
X71105845Y-151343934D02*
G75*
G02*
X71262147Y-151300000I156299J-256058D01*
G01*
X71262147Y-148300000D02*
G75*
G02*
X71105845Y-148256066I-3J299992D01*
G01*
X73062853Y-151300000D02*
G75*
G02*
X73219156Y-151343933I-3J-300020D01*
G01*
X73219155Y-148256066D02*
G75*
G02*
X73062853Y-148299976I-156255J256066D01*
G01*
X73219155Y-148256066D02*
G75*
G02*
X73906434Y-148943345I260505J-426774D01*
G01*
X73862500Y-149099647D02*
G75*
G02*
X73906435Y-148943346I299680J87D01*
G01*
X73906434Y-150656655D02*
G75*
G02*
X73219155Y-151343934I-426774J-260505D01*
G01*
X73906434Y-150656655D02*
G75*
G02*
X73862524Y-150500353I256066J156255D01*
G01*
%TO.C,L11*%
X89512500Y-111700000D02*
X89512500Y-110999647D01*
X89512500Y-111700000D02*
X89512500Y-112400353D01*
X91212500Y-110200000D02*
X90312147Y-110200000D01*
X91212500Y-110200000D02*
X92112853Y-110200000D01*
X91212500Y-113200000D02*
X90312147Y-113200000D01*
X91212500Y-113200000D02*
X92112853Y-113200000D01*
X92912500Y-111700000D02*
X92912500Y-110999647D01*
X92912500Y-111700000D02*
X92912500Y-112400353D01*
X89468566Y-110843345D02*
G75*
G02*
X89512500Y-110999647I-256058J-156299D01*
G01*
X89468566Y-110843345D02*
G75*
G02*
X90155845Y-110156066I426776J260503D01*
G01*
X89512500Y-112400353D02*
G75*
G02*
X89468566Y-112556655I-299992J-3D01*
G01*
X90155845Y-113243934D02*
G75*
G02*
X89468566Y-112556655I-260503J426776D01*
G01*
X90155845Y-113243934D02*
G75*
G02*
X90312147Y-113200000I156299J-256058D01*
G01*
X90312147Y-110200000D02*
G75*
G02*
X90155845Y-110156066I-3J299992D01*
G01*
X92112853Y-113200000D02*
G75*
G02*
X92269156Y-113243933I-3J-300020D01*
G01*
X92269155Y-110156066D02*
G75*
G02*
X92112853Y-110199976I-156255J256066D01*
G01*
X92269155Y-110156066D02*
G75*
G02*
X92956434Y-110843345I260505J-426774D01*
G01*
X92912500Y-110999647D02*
G75*
G02*
X92956435Y-110843346I299680J87D01*
G01*
X92956434Y-112556655D02*
G75*
G02*
X92269155Y-113243934I-426774J-260505D01*
G01*
X92956434Y-112556655D02*
G75*
G02*
X92912524Y-112400353I256066J156255D01*
G01*
%TO.C,L13*%
X51412500Y-130750000D02*
X51412500Y-130049647D01*
X51412500Y-130750000D02*
X51412500Y-131450353D01*
X53112500Y-129250000D02*
X52212147Y-129250000D01*
X53112500Y-129250000D02*
X54012853Y-129250000D01*
X53112500Y-132250000D02*
X52212147Y-132250000D01*
X53112500Y-132250000D02*
X54012853Y-132250000D01*
X54812500Y-130750000D02*
X54812500Y-130049647D01*
X54812500Y-130750000D02*
X54812500Y-131450353D01*
X51368566Y-129893345D02*
G75*
G02*
X51412500Y-130049647I-256058J-156299D01*
G01*
X51368566Y-129893345D02*
G75*
G02*
X52055845Y-129206066I426776J260503D01*
G01*
X51412500Y-131450353D02*
G75*
G02*
X51368566Y-131606655I-299992J-3D01*
G01*
X52055845Y-132293934D02*
G75*
G02*
X51368566Y-131606655I-260503J426776D01*
G01*
X52055845Y-132293934D02*
G75*
G02*
X52212147Y-132250000I156299J-256058D01*
G01*
X52212147Y-129250000D02*
G75*
G02*
X52055845Y-129206066I-3J299992D01*
G01*
X54012853Y-132250000D02*
G75*
G02*
X54169156Y-132293933I-3J-300020D01*
G01*
X54169155Y-129206066D02*
G75*
G02*
X54012853Y-129249976I-156255J256066D01*
G01*
X54169155Y-129206066D02*
G75*
G02*
X54856434Y-129893345I260505J-426774D01*
G01*
X54812500Y-130049647D02*
G75*
G02*
X54856435Y-129893346I299680J87D01*
G01*
X54856434Y-131606655D02*
G75*
G02*
X54169155Y-132293934I-426774J-260505D01*
G01*
X54856434Y-131606655D02*
G75*
G02*
X54812524Y-131450353I256066J156255D01*
G01*
%TO.C,L9*%
X51412500Y-111700000D02*
X51412500Y-110999647D01*
X51412500Y-111700000D02*
X51412500Y-112400353D01*
X53112500Y-110200000D02*
X52212147Y-110200000D01*
X53112500Y-110200000D02*
X54012853Y-110200000D01*
X53112500Y-113200000D02*
X52212147Y-113200000D01*
X53112500Y-113200000D02*
X54012853Y-113200000D01*
X54812500Y-111700000D02*
X54812500Y-110999647D01*
X54812500Y-111700000D02*
X54812500Y-112400353D01*
X51368566Y-110843345D02*
G75*
G02*
X51412500Y-110999647I-256058J-156299D01*
G01*
X51368566Y-110843345D02*
G75*
G02*
X52055845Y-110156066I426776J260503D01*
G01*
X51412500Y-112400353D02*
G75*
G02*
X51368566Y-112556655I-299992J-3D01*
G01*
X52055845Y-113243934D02*
G75*
G02*
X51368566Y-112556655I-260503J426776D01*
G01*
X52055845Y-113243934D02*
G75*
G02*
X52212147Y-113200000I156299J-256058D01*
G01*
X52212147Y-110200000D02*
G75*
G02*
X52055845Y-110156066I-3J299992D01*
G01*
X54012853Y-113200000D02*
G75*
G02*
X54169156Y-113243933I-3J-300020D01*
G01*
X54169155Y-110156066D02*
G75*
G02*
X54012853Y-110199976I-156255J256066D01*
G01*
X54169155Y-110156066D02*
G75*
G02*
X54856434Y-110843345I260505J-426774D01*
G01*
X54812500Y-110999647D02*
G75*
G02*
X54856435Y-110843346I299680J87D01*
G01*
X54856434Y-112556655D02*
G75*
G02*
X54169155Y-113243934I-426774J-260505D01*
G01*
X54856434Y-112556655D02*
G75*
G02*
X54812524Y-112400353I256066J156255D01*
G01*
%TO.C,L8*%
X108562500Y-92650000D02*
X108562500Y-91949647D01*
X108562500Y-92650000D02*
X108562500Y-93350353D01*
X110262500Y-91150000D02*
X109362147Y-91150000D01*
X110262500Y-91150000D02*
X111162853Y-91150000D01*
X110262500Y-94150000D02*
X109362147Y-94150000D01*
X110262500Y-94150000D02*
X111162853Y-94150000D01*
X111962500Y-92650000D02*
X111962500Y-91949647D01*
X111962500Y-92650000D02*
X111962500Y-93350353D01*
X108518566Y-91793345D02*
G75*
G02*
X108562500Y-91949647I-256058J-156299D01*
G01*
X108518566Y-91793345D02*
G75*
G02*
X109205845Y-91106066I426776J260503D01*
G01*
X108562500Y-93350353D02*
G75*
G02*
X108518566Y-93506655I-299992J-3D01*
G01*
X109205845Y-94193934D02*
G75*
G02*
X108518566Y-93506655I-260503J426776D01*
G01*
X109205845Y-94193934D02*
G75*
G02*
X109362147Y-94150000I156299J-256058D01*
G01*
X109362147Y-91150000D02*
G75*
G02*
X109205845Y-91106066I-3J299992D01*
G01*
X111162853Y-94150000D02*
G75*
G02*
X111319156Y-94193933I-3J-300020D01*
G01*
X111319155Y-91106066D02*
G75*
G02*
X111162853Y-91149976I-156255J256066D01*
G01*
X111319155Y-91106066D02*
G75*
G02*
X112006434Y-91793345I260505J-426774D01*
G01*
X111962500Y-91949647D02*
G75*
G02*
X112006435Y-91793346I299680J87D01*
G01*
X112006434Y-93506655D02*
G75*
G02*
X111319155Y-94193934I-426774J-260505D01*
G01*
X112006434Y-93506655D02*
G75*
G02*
X111962524Y-93350353I256066J156255D01*
G01*
%TO.C,L7*%
X89512500Y-92650000D02*
X89512500Y-91949647D01*
X89512500Y-92650000D02*
X89512500Y-93350353D01*
X91212500Y-91150000D02*
X90312147Y-91150000D01*
X91212500Y-91150000D02*
X92112853Y-91150000D01*
X91212500Y-94150000D02*
X90312147Y-94150000D01*
X91212500Y-94150000D02*
X92112853Y-94150000D01*
X92912500Y-92650000D02*
X92912500Y-91949647D01*
X92912500Y-92650000D02*
X92912500Y-93350353D01*
X89468566Y-91793345D02*
G75*
G02*
X89512500Y-91949647I-256058J-156299D01*
G01*
X89468566Y-91793345D02*
G75*
G02*
X90155845Y-91106066I426776J260503D01*
G01*
X89512500Y-93350353D02*
G75*
G02*
X89468566Y-93506655I-299992J-3D01*
G01*
X90155845Y-94193934D02*
G75*
G02*
X89468566Y-93506655I-260503J426776D01*
G01*
X90155845Y-94193934D02*
G75*
G02*
X90312147Y-94150000I156299J-256058D01*
G01*
X90312147Y-91150000D02*
G75*
G02*
X90155845Y-91106066I-3J299992D01*
G01*
X92112853Y-94150000D02*
G75*
G02*
X92269156Y-94193933I-3J-300020D01*
G01*
X92269155Y-91106066D02*
G75*
G02*
X92112853Y-91149976I-156255J256066D01*
G01*
X92269155Y-91106066D02*
G75*
G02*
X92956434Y-91793345I260505J-426774D01*
G01*
X92912500Y-91949647D02*
G75*
G02*
X92956435Y-91793346I299680J87D01*
G01*
X92956434Y-93506655D02*
G75*
G02*
X92269155Y-94193934I-426774J-260505D01*
G01*
X92956434Y-93506655D02*
G75*
G02*
X92912524Y-93350353I256066J156255D01*
G01*
%TO.C,L2*%
X70462500Y-73600000D02*
X70462500Y-72899647D01*
X70462500Y-73600000D02*
X70462500Y-74300353D01*
X72162500Y-72100000D02*
X71262147Y-72100000D01*
X72162500Y-72100000D02*
X73062853Y-72100000D01*
X72162500Y-75100000D02*
X71262147Y-75100000D01*
X72162500Y-75100000D02*
X73062853Y-75100000D01*
X73862500Y-73600000D02*
X73862500Y-72899647D01*
X73862500Y-73600000D02*
X73862500Y-74300353D01*
X70418566Y-72743345D02*
G75*
G02*
X70462500Y-72899647I-256058J-156299D01*
G01*
X70418566Y-72743345D02*
G75*
G02*
X71105845Y-72056066I426776J260503D01*
G01*
X70462500Y-74300353D02*
G75*
G02*
X70418566Y-74456655I-299992J-3D01*
G01*
X71105845Y-75143934D02*
G75*
G02*
X70418566Y-74456655I-260503J426776D01*
G01*
X71105845Y-75143934D02*
G75*
G02*
X71262147Y-75100000I156299J-256058D01*
G01*
X71262147Y-72100000D02*
G75*
G02*
X71105845Y-72056066I-3J299992D01*
G01*
X73062853Y-75100000D02*
G75*
G02*
X73219156Y-75143933I-3J-300020D01*
G01*
X73219155Y-72056066D02*
G75*
G02*
X73062853Y-72099976I-156255J256066D01*
G01*
X73219155Y-72056066D02*
G75*
G02*
X73906434Y-72743345I260505J-426774D01*
G01*
X73862500Y-72899647D02*
G75*
G02*
X73906435Y-72743346I299680J87D01*
G01*
X73906434Y-74456655D02*
G75*
G02*
X73219155Y-75143934I-426774J-260505D01*
G01*
X73906434Y-74456655D02*
G75*
G02*
X73862524Y-74300353I256066J156255D01*
G01*
%TD*%
M02*
