%TF.GenerationSoftware,KiCad,Pcbnew,10.0.4*%
%TF.CreationDate,2026-08-08T14:24:34-05:00*%
%TF.ProjectId,macropad,6d616372-6f70-4616-942e-6b696361645f,rev?*%
%TF.SameCoordinates,Original*%
%TF.FileFunction,Paste,Bot*%
%TF.FilePolarity,Positive*%
%FSLAX46Y46*%
G04 Gerber Fmt 4.6, Leading zero omitted, Abs format (unit mm)*
G04 Created by KiCad (PCBNEW 10.0.4) date 2026-08-08 14:24:34*
%MOMM*%
%LPD*%
G01*
G04 APERTURE LIST*
G04 Aperture macros list*
%AMRoundRect*
0 Rectangle with rounded corners*
0 $1 Rounding radius*
0 $2 $3 $4 $5 $6 $7 $8 $9 X,Y pos of 4 corners*
0 Add a 4 corners polygon primitive as box body*
4,1,4,$2,$3,$4,$5,$6,$7,$8,$9,$2,$3,0*
0 Add four circle primitives for the rounded corners*
1,1,$1+$1,$2,$3*
1,1,$1+$1,$4,$5*
1,1,$1+$1,$6,$7*
1,1,$1+$1,$8,$9*
0 Add four rect primitives between the rounded corners*
20,1,$1+$1,$2,$3,$4,$5,0*
20,1,$1+$1,$4,$5,$6,$7,0*
20,1,$1+$1,$6,$7,$8,$9,0*
20,1,$1+$1,$8,$9,$2,$3,0*%
G04 Aperture macros list end*
%ADD10RoundRect,0.250000X-0.475000X0.337500X-0.475000X-0.337500X0.475000X-0.337500X0.475000X0.337500X0*%
%ADD11RoundRect,0.050000X0.238649X-0.309359X0.309359X-0.238649X-0.238649X0.309359X-0.309359X0.238649X0*%
%ADD12RoundRect,0.050000X-0.238649X-0.309359X0.309359X0.238649X0.238649X0.309359X-0.309359X-0.238649X0*%
%ADD13RoundRect,0.249999X0.000000X-0.558616X0.558616X0.000000X0.000000X0.558616X-0.558616X0.000000X0*%
%ADD14RoundRect,0.250000X0.475000X-0.337500X0.475000X0.337500X-0.475000X0.337500X-0.475000X-0.337500X0*%
%ADD15RoundRect,0.250000X-1.025000X-1.000000X1.025000X-1.000000X1.025000X1.000000X-1.025000X1.000000X0*%
%ADD16RoundRect,0.250000X0.337500X0.475000X-0.337500X0.475000X-0.337500X-0.475000X0.337500X-0.475000X0*%
%ADD17RoundRect,0.205000X-0.470000X-0.205000X0.470000X-0.205000X0.470000X0.205000X-0.470000X0.205000X0*%
%ADD18RoundRect,0.250000X0.450000X-0.325000X0.450000X0.325000X-0.450000X0.325000X-0.450000X-0.325000X0*%
%ADD19O,1.000000X2.100000*%
%ADD20O,1.000000X1.800000*%
%ADD21RoundRect,0.150000X-0.150000X-0.425000X0.150000X-0.425000X0.150000X0.425000X-0.150000X0.425000X0*%
%ADD22RoundRect,0.075000X-0.075000X-0.500000X0.075000X-0.500000X0.075000X0.500000X-0.075000X0.500000X0*%
%ADD23RoundRect,0.250000X-0.450000X0.350000X-0.450000X-0.350000X0.450000X-0.350000X0.450000X0.350000X0*%
%ADD24RoundRect,0.250000X0.325000X0.450000X-0.325000X0.450000X-0.325000X-0.450000X0.325000X-0.450000X0*%
%ADD25RoundRect,0.162500X0.617500X0.162500X-0.617500X0.162500X-0.617500X-0.162500X0.617500X-0.162500X0*%
%ADD26RoundRect,0.150000X0.512500X0.150000X-0.512500X0.150000X-0.512500X-0.150000X0.512500X-0.150000X0*%
%ADD27RoundRect,0.375000X0.375000X-0.625000X0.375000X0.625000X-0.375000X0.625000X-0.375000X-0.625000X0*%
%ADD28RoundRect,0.500000X1.400000X-0.500000X1.400000X0.500000X-1.400000X0.500000X-1.400000X-0.500000X0*%
%ADD29RoundRect,0.250000X0.350000X0.450000X-0.350000X0.450000X-0.350000X-0.450000X0.350000X-0.450000X0*%
%ADD30RoundRect,0.250000X-0.350000X-0.450000X0.350000X-0.450000X0.350000X0.450000X-0.350000X0.450000X0*%
%ADD31RoundRect,0.162500X-0.650000X-0.162500X0.650000X-0.162500X0.650000X0.162500X-0.650000X0.162500X0*%
%ADD32RoundRect,0.250000X-0.337500X-0.475000X0.337500X-0.475000X0.337500X0.475000X-0.337500X0.475000X0*%
%ADD33R,1.000000X0.750000*%
%ADD34RoundRect,0.250000X0.450000X0.350000X-0.450000X0.350000X-0.450000X-0.350000X0.450000X-0.350000X0*%
G04 APERTURE END LIST*
D10*
%TO.C,C24*%
X52400000Y-51900000D03*
X52400000Y-49825000D03*
%TD*%
D11*
%TO.C,U2*%
X59381460Y-55597056D03*
X59664303Y-55314213D03*
X59947145Y-55031371D03*
X60229988Y-54748528D03*
X60512831Y-54465685D03*
X60795673Y-54182843D03*
X61078516Y-53900000D03*
X61361359Y-53617157D03*
X61644202Y-53334314D03*
X61927044Y-53051472D03*
X62209887Y-52768629D03*
X62492730Y-52485786D03*
X62775572Y-52202944D03*
X63058415Y-51920101D03*
D12*
X63058415Y-50735697D03*
X62775572Y-50452854D03*
X62492730Y-50170012D03*
X62209887Y-49887169D03*
X61927044Y-49604326D03*
X61644202Y-49321484D03*
X61361359Y-49038641D03*
X61078516Y-48755798D03*
X60795673Y-48472955D03*
X60512831Y-48190113D03*
X60229988Y-47907270D03*
X59947145Y-47624427D03*
X59664303Y-47341585D03*
X59381460Y-47058742D03*
D11*
X58197056Y-47058742D03*
X57914213Y-47341585D03*
X57631371Y-47624427D03*
X57348528Y-47907270D03*
X57065685Y-48190113D03*
X56782843Y-48472955D03*
X56500000Y-48755798D03*
X56217157Y-49038641D03*
X55934314Y-49321484D03*
X55651472Y-49604326D03*
X55368629Y-49887169D03*
X55085786Y-50170012D03*
X54802944Y-50452854D03*
X54520101Y-50735697D03*
D12*
X54520101Y-51920101D03*
X54802944Y-52202944D03*
X55085786Y-52485786D03*
X55368629Y-52768629D03*
X55651472Y-53051472D03*
X55934314Y-53334314D03*
X56217157Y-53617157D03*
X56500000Y-53900000D03*
X56782843Y-54182843D03*
X57065685Y-54465685D03*
X57348528Y-54748528D03*
X57631371Y-55031371D03*
X57914213Y-55314213D03*
X58197056Y-55597056D03*
D13*
X59920629Y-51327899D03*
X58789258Y-50196528D03*
X58789258Y-52459270D03*
X57657887Y-51327899D03*
%TD*%
D14*
%TO.C,C25*%
X46000000Y-52137500D03*
X46000000Y-50062500D03*
%TD*%
D15*
%TO.C,SW1*%
X58954500Y-63440000D03*
X46027500Y-65980000D03*
%TD*%
D16*
%TO.C,C1*%
X52075000Y-76600000D03*
X54150000Y-76600000D03*
%TD*%
D17*
%TO.C,L1*%
X55837500Y-72850000D03*
X55837500Y-74350000D03*
X50387500Y-74350000D03*
X50387500Y-72850000D03*
%TD*%
D15*
%TO.C,SW5*%
X46027500Y-85030000D03*
X58954500Y-82490000D03*
%TD*%
D18*
%TO.C,D2*%
X58192500Y-71495000D03*
X58192500Y-73545000D03*
%TD*%
D17*
%TO.C,L5*%
X55837500Y-91900000D03*
X55837500Y-93400000D03*
X50387500Y-93400000D03*
X50387500Y-91900000D03*
%TD*%
D15*
%TO.C,SW9*%
X58954500Y-101540000D03*
X46027500Y-104080000D03*
%TD*%
D16*
%TO.C,C5*%
X52075000Y-95650000D03*
X54150000Y-95650000D03*
%TD*%
D19*
%TO.C,J1*%
X86020000Y-50705000D03*
D20*
X86020000Y-46525000D03*
D19*
X77380000Y-50705000D03*
D20*
X77380000Y-46525000D03*
D21*
X78500000Y-51280000D03*
X79300000Y-51280000D03*
D22*
X79950000Y-51280000D03*
X80950000Y-51280000D03*
X82450000Y-51280000D03*
X83450000Y-51280000D03*
D21*
X84100000Y-51280000D03*
X84900000Y-51280000D03*
X84900000Y-51280000D03*
X84100000Y-51280000D03*
D22*
X82950000Y-51280000D03*
X81950000Y-51280000D03*
X81450000Y-51280000D03*
X80450000Y-51280000D03*
D21*
X79300000Y-51280000D03*
X78500000Y-51280000D03*
%TD*%
D15*
%TO.C,SW11*%
X84127500Y-104080000D03*
X97054500Y-101540000D03*
%TD*%
%TO.C,SW4*%
X103177500Y-65980000D03*
X116104500Y-63440000D03*
%TD*%
%TO.C,SW6*%
X65077500Y-85030000D03*
X78004500Y-82490000D03*
%TD*%
%TO.C,SW15*%
X84127500Y-123130000D03*
X97054500Y-120590000D03*
%TD*%
%TO.C,SW16*%
X103177500Y-123130000D03*
X116104500Y-120590000D03*
%TD*%
%TO.C,SW13*%
X46027500Y-123130000D03*
X58954500Y-120590000D03*
%TD*%
%TO.C,SW17*%
X46027500Y-142180000D03*
X58954500Y-139640000D03*
%TD*%
%TO.C,SW8*%
X103177500Y-85030000D03*
X116104500Y-82490000D03*
%TD*%
%TO.C,SW14*%
X65077500Y-123130000D03*
X78004500Y-120590000D03*
%TD*%
%TO.C,SW20*%
X103177500Y-142180000D03*
X116104500Y-139640000D03*
%TD*%
%TO.C,SW7*%
X84127500Y-85030000D03*
X97054500Y-82490000D03*
%TD*%
%TO.C,SW10*%
X65077500Y-104080000D03*
X78004500Y-101540000D03*
%TD*%
%TO.C,SW3*%
X84127500Y-65980000D03*
X97054500Y-63440000D03*
%TD*%
%TO.C,SW18*%
X65077500Y-142180000D03*
X78004500Y-139640000D03*
%TD*%
%TO.C,SW19*%
X84127500Y-142180000D03*
X97054500Y-139640000D03*
%TD*%
%TO.C,SW2*%
X65077500Y-65980000D03*
X78004500Y-63440000D03*
%TD*%
%TO.C,SW12*%
X103177500Y-104080000D03*
X116104500Y-101540000D03*
%TD*%
D23*
%TO.C,R1*%
X100100000Y-55700000D03*
X100100000Y-57700000D03*
%TD*%
D18*
%TO.C,D3*%
X77242500Y-73545000D03*
X77242500Y-71495000D03*
%TD*%
%TO.C,D15*%
X77242500Y-130695000D03*
X77242500Y-128645000D03*
%TD*%
%TO.C,D9*%
X115342500Y-92595000D03*
X115342500Y-90545000D03*
%TD*%
D16*
%TO.C,C6*%
X73200000Y-95650000D03*
X71125000Y-95650000D03*
%TD*%
D17*
%TO.C,L12*%
X107537500Y-110950000D03*
X107537500Y-112450000D03*
X112987500Y-112450000D03*
X112987500Y-110950000D03*
%TD*%
%TO.C,L20*%
X107537500Y-149050000D03*
X107537500Y-150550000D03*
X112987500Y-150550000D03*
X112987500Y-149050000D03*
%TD*%
D24*
%TO.C,D1*%
X103625000Y-50900000D03*
X101575000Y-50900000D03*
%TD*%
D25*
%TO.C,U5*%
X49750000Y-54050000D03*
X49750000Y-55000000D03*
X49750000Y-55950000D03*
X47050000Y-55950000D03*
X47050000Y-54050000D03*
%TD*%
D16*
%TO.C,C8*%
X111300000Y-95650000D03*
X109225000Y-95650000D03*
%TD*%
%TO.C,C16*%
X111300000Y-133750000D03*
X109225000Y-133750000D03*
%TD*%
%TO.C,C12*%
X111300000Y-114700000D03*
X109225000Y-114700000D03*
%TD*%
%TO.C,C17*%
X54150000Y-152800000D03*
X52075000Y-152800000D03*
%TD*%
D26*
%TO.C,U3*%
X74900000Y-48400000D03*
X74900000Y-49350000D03*
X74900000Y-50300000D03*
X72625000Y-50300000D03*
X72625000Y-49350000D03*
X72625000Y-48400000D03*
%TD*%
D14*
%TO.C,C23*%
X102100000Y-57737500D03*
X102100000Y-55662500D03*
%TD*%
D18*
%TO.C,D12*%
X96292500Y-111645000D03*
X96292500Y-109595000D03*
%TD*%
D17*
%TO.C,L10*%
X69437500Y-110950000D03*
X69437500Y-112450000D03*
X74887500Y-112450000D03*
X74887500Y-110950000D03*
%TD*%
%TO.C,L4*%
X107537500Y-72850000D03*
X107537500Y-74350000D03*
X112987500Y-74350000D03*
X112987500Y-72850000D03*
%TD*%
D18*
%TO.C,D20*%
X96292500Y-149745000D03*
X96292500Y-147695000D03*
%TD*%
D27*
%TO.C,U1*%
X94800000Y-52550000D03*
X92500000Y-52550000D03*
D28*
X92500000Y-46250000D03*
D27*
X90200000Y-52550000D03*
%TD*%
D18*
%TO.C,D13*%
X115342500Y-111645000D03*
X115342500Y-109595000D03*
%TD*%
D16*
%TO.C,C7*%
X92250000Y-95650000D03*
X90175000Y-95650000D03*
%TD*%
D10*
%TO.C,C22*%
X97800000Y-50862500D03*
X97800000Y-52937500D03*
%TD*%
D17*
%TO.C,L3*%
X88487500Y-72850000D03*
X88487500Y-74350000D03*
X93937500Y-74350000D03*
X93937500Y-72850000D03*
%TD*%
D16*
%TO.C,C14*%
X73200000Y-133750000D03*
X71125000Y-133750000D03*
%TD*%
D17*
%TO.C,L6*%
X69437500Y-91900000D03*
X69437500Y-93400000D03*
X74887500Y-93400000D03*
X74887500Y-91900000D03*
%TD*%
%TO.C,L17*%
X50387500Y-149050000D03*
X50387500Y-150550000D03*
X55837500Y-150550000D03*
X55837500Y-149050000D03*
%TD*%
%TO.C,L14*%
X69437500Y-130000000D03*
X69437500Y-131500000D03*
X74887500Y-131500000D03*
X74887500Y-130000000D03*
%TD*%
D18*
%TO.C,D5*%
X115342500Y-73545000D03*
X115342500Y-71495000D03*
%TD*%
D29*
%TO.C,R5*%
X70700000Y-51200000D03*
X68700000Y-51200000D03*
%TD*%
D18*
%TO.C,D10*%
X58192500Y-111645000D03*
X58192500Y-109595000D03*
%TD*%
D17*
%TO.C,L16*%
X107537500Y-130000000D03*
X107537500Y-131500000D03*
X112987500Y-131500000D03*
X112987500Y-130000000D03*
%TD*%
%TO.C,L15*%
X88487500Y-130000000D03*
X88487500Y-131500000D03*
X93937500Y-131500000D03*
X93937500Y-130000000D03*
%TD*%
D16*
%TO.C,C13*%
X54150000Y-133750000D03*
X52075000Y-133750000D03*
%TD*%
D18*
%TO.C,D16*%
X96292500Y-130695000D03*
X96292500Y-128645000D03*
%TD*%
%TO.C,D21*%
X115342500Y-149745000D03*
X115342500Y-147695000D03*
%TD*%
D16*
%TO.C,C19*%
X92250000Y-152800000D03*
X90175000Y-152800000D03*
%TD*%
D29*
%TO.C,R6*%
X44100000Y-54200000D03*
X42100000Y-54200000D03*
%TD*%
%TO.C,R2*%
X80300000Y-53600000D03*
X78300000Y-53600000D03*
%TD*%
D30*
%TO.C,R3*%
X83710000Y-53900000D03*
X85710000Y-53900000D03*
%TD*%
D17*
%TO.C,L19*%
X88487500Y-149050000D03*
X88487500Y-150550000D03*
X93937500Y-150550000D03*
X93937500Y-149050000D03*
%TD*%
D31*
%TO.C,U4*%
X67612500Y-58005000D03*
X67612500Y-56735000D03*
X67612500Y-55465000D03*
X67612500Y-54195000D03*
X74787500Y-54195000D03*
X74787500Y-55465000D03*
X74787500Y-56735000D03*
X74787500Y-58005000D03*
%TD*%
D23*
%TO.C,R7*%
X81700000Y-56100000D03*
X81700000Y-58100000D03*
%TD*%
D18*
%TO.C,D11*%
X77242500Y-111645000D03*
X77242500Y-109595000D03*
%TD*%
D16*
%TO.C,C10*%
X73200000Y-114700000D03*
X71125000Y-114700000D03*
%TD*%
D18*
%TO.C,D7*%
X77242500Y-92595000D03*
X77242500Y-90545000D03*
%TD*%
D16*
%TO.C,C20*%
X111300000Y-152800000D03*
X109225000Y-152800000D03*
%TD*%
D32*
%TO.C,C26*%
X77262500Y-57600000D03*
X79337500Y-57600000D03*
%TD*%
D16*
%TO.C,C15*%
X92250000Y-133750000D03*
X90175000Y-133750000D03*
%TD*%
D17*
%TO.C,L18*%
X69437500Y-149050000D03*
X69437500Y-150550000D03*
X74887500Y-150550000D03*
X74887500Y-149050000D03*
%TD*%
D16*
%TO.C,C18*%
X73200000Y-152800000D03*
X71125000Y-152800000D03*
%TD*%
%TO.C,C11*%
X92250000Y-114700000D03*
X90175000Y-114700000D03*
%TD*%
D32*
%TO.C,C21*%
X90262500Y-55600000D03*
X92337500Y-55600000D03*
%TD*%
D17*
%TO.C,L11*%
X88487500Y-110950000D03*
X88487500Y-112450000D03*
X93937500Y-112450000D03*
X93937500Y-110950000D03*
%TD*%
D16*
%TO.C,C2*%
X73200000Y-76600000D03*
X71125000Y-76600000D03*
%TD*%
D33*
%TO.C,SW21*%
X107700000Y-57975000D03*
X113700000Y-57975000D03*
X107700000Y-54225000D03*
X113700000Y-54225000D03*
%TD*%
D18*
%TO.C,D8*%
X96292500Y-92595000D03*
X96292500Y-90545000D03*
%TD*%
%TO.C,D19*%
X77242500Y-149745000D03*
X77242500Y-147695000D03*
%TD*%
D17*
%TO.C,L13*%
X50387500Y-130000000D03*
X50387500Y-131500000D03*
X55837500Y-131500000D03*
X55837500Y-130000000D03*
%TD*%
D29*
%TO.C,R8*%
X103600000Y-53000000D03*
X101600000Y-53000000D03*
%TD*%
D17*
%TO.C,L9*%
X50387500Y-110950000D03*
X50387500Y-112450000D03*
X55837500Y-112450000D03*
X55837500Y-110950000D03*
%TD*%
D29*
%TO.C,R4*%
X70700000Y-49200000D03*
X68700000Y-49200000D03*
%TD*%
D16*
%TO.C,C9*%
X54150000Y-114700000D03*
X52075000Y-114700000D03*
%TD*%
D17*
%TO.C,L8*%
X107537500Y-91900000D03*
X107537500Y-93400000D03*
X112987500Y-93400000D03*
X112987500Y-91900000D03*
%TD*%
D16*
%TO.C,C4*%
X111300000Y-76600000D03*
X109225000Y-76600000D03*
%TD*%
D17*
%TO.C,L7*%
X88487500Y-91900000D03*
X88487500Y-93400000D03*
X93937500Y-93400000D03*
X93937500Y-91900000D03*
%TD*%
D18*
%TO.C,D17*%
X115342500Y-130695000D03*
X115342500Y-128645000D03*
%TD*%
%TO.C,D14*%
X58192500Y-130695000D03*
X58192500Y-128645000D03*
%TD*%
%TO.C,D4*%
X96292500Y-73545000D03*
X96292500Y-71495000D03*
%TD*%
D34*
%TO.C,Y1*%
X50300000Y-51900000D03*
X48100000Y-51900000D03*
X48100000Y-50200000D03*
X50300000Y-50200000D03*
%TD*%
D16*
%TO.C,C3*%
X92250000Y-76600000D03*
X90175000Y-76600000D03*
%TD*%
D18*
%TO.C,D18*%
X58192500Y-149745000D03*
X58192500Y-147695000D03*
%TD*%
D17*
%TO.C,L2*%
X69437500Y-72850000D03*
X69437500Y-74350000D03*
X74887500Y-74350000D03*
X74887500Y-72850000D03*
%TD*%
D18*
%TO.C,D6*%
X58192500Y-92595000D03*
X58192500Y-90545000D03*
%TD*%
M02*
