%TF.GenerationSoftware,KiCad,Pcbnew,10.0.4*%
%TF.CreationDate,2026-08-08T14:24:34-05:00*%
%TF.ProjectId,macropad,6d616372-6f70-4616-942e-6b696361645f,rev?*%
%TF.SameCoordinates,Original*%
%TF.FileFunction,Soldermask,Top*%
%TF.FilePolarity,Negative*%
%FSLAX46Y46*%
G04 Gerber Fmt 4.6, Leading zero omitted, Abs format (unit mm)*
G04 Created by KiCad (PCBNEW 10.0.4) date 2026-08-08 14:24:34*
%MOMM*%
%LPD*%
G01*
G04 APERTURE LIST*
G04 Aperture macros list*
%AMRoundRect*
0 Rectangle with rounded corners*
0 $1 Rounding radius*
0 $2 $3 $4 $5 $6 $7 $8 $9 X,Y pos of 4 corners*
0 Add a 4 corners polygon primitive as box body*
4,1,4,$2,$3,$4,$5,$6,$7,$8,$9,$2,$3,0*
0 Add four circle primitives for the rounded corners*
1,1,$1+$1,$2,$3*
1,1,$1+$1,$4,$5*
1,1,$1+$1,$6,$7*
1,1,$1+$1,$8,$9*
0 Add four rect primitives between the rounded corners*
20,1,$1+$1,$2,$3,$4,$5,0*
20,1,$1+$1,$4,$5,$6,$7,0*
20,1,$1+$1,$6,$7,$8,$9,0*
20,1,$1+$1,$8,$9,$2,$3,0*%
G04 Aperture macros list end*
%ADD10RoundRect,0.250000X-0.475000X0.337500X-0.475000X-0.337500X0.475000X-0.337500X0.475000X0.337500X0*%
%ADD11C,2.200000*%
%ADD12C,1.750000*%
%ADD13C,3.050000*%
%ADD14C,4.000000*%
%ADD15O,1.000000X2.100000*%
%ADD16O,1.000000X1.800000*%
%ADD17C,0.650000*%
%ADD18RoundRect,0.250000X0.337500X0.475000X-0.337500X0.475000X-0.337500X-0.475000X0.337500X-0.475000X0*%
%ADD19R,1.700000X1.700000*%
%ADD20C,1.700000*%
G04 APERTURE END LIST*
D10*
%TO.C,C27*%
X50300000Y-52337500D03*
X50300000Y-50262500D03*
%TD*%
D11*
%TO.C,H2*%
X122837500Y-154295000D03*
%TD*%
%TO.C,H4*%
X40537500Y-48945000D03*
%TD*%
%TO.C,H3*%
X40537500Y-154295000D03*
%TD*%
%TO.C,H1*%
X122837500Y-48945000D03*
%TD*%
D12*
%TO.C,SW1*%
X58192500Y-68520000D03*
D13*
X55652500Y-63440000D03*
D14*
X53112500Y-68520000D03*
D13*
X49302500Y-65980000D03*
D12*
X48032500Y-68520000D03*
%TD*%
%TO.C,SW5*%
X48032500Y-87570000D03*
D13*
X49302500Y-85030000D03*
D14*
X53112500Y-87570000D03*
D13*
X55652500Y-82490000D03*
D12*
X58192500Y-87570000D03*
%TD*%
%TO.C,SW9*%
X58192500Y-106620000D03*
D13*
X55652500Y-101540000D03*
D14*
X53112500Y-106620000D03*
D13*
X49302500Y-104080000D03*
D12*
X48032500Y-106620000D03*
%TD*%
D15*
%TO.C,J1*%
X86020000Y-50705000D03*
D16*
X86020000Y-46525000D03*
D15*
X77380000Y-50705000D03*
D16*
X77380000Y-46525000D03*
D17*
X84590000Y-50205000D03*
X78810000Y-50205000D03*
%TD*%
D12*
%TO.C,SW11*%
X86132500Y-106620000D03*
D13*
X87402500Y-104080000D03*
D14*
X91212500Y-106620000D03*
D13*
X93752500Y-101540000D03*
D12*
X96292500Y-106620000D03*
%TD*%
D10*
%TO.C,C36*%
X46300000Y-50262500D03*
X46300000Y-52337500D03*
%TD*%
D18*
%TO.C,C29*%
X70551166Y-47942517D03*
X68476166Y-47942517D03*
%TD*%
D12*
%TO.C,SW4*%
X105182500Y-68520000D03*
D13*
X106452500Y-65980000D03*
D14*
X110262500Y-68520000D03*
D13*
X112802500Y-63440000D03*
D12*
X115342500Y-68520000D03*
%TD*%
%TO.C,SW6*%
X67082500Y-87570000D03*
D13*
X68352500Y-85030000D03*
D14*
X72162500Y-87570000D03*
D13*
X74702500Y-82490000D03*
D12*
X77242500Y-87570000D03*
%TD*%
%TO.C,SW15*%
X86132500Y-125670000D03*
D13*
X87402500Y-123130000D03*
D14*
X91212500Y-125670000D03*
D13*
X93752500Y-120590000D03*
D12*
X96292500Y-125670000D03*
%TD*%
%TO.C,SW16*%
X105182500Y-125670000D03*
D13*
X106452500Y-123130000D03*
D14*
X110262500Y-125670000D03*
D13*
X112802500Y-120590000D03*
D12*
X115342500Y-125670000D03*
%TD*%
%TO.C,SW13*%
X48032500Y-125670000D03*
D13*
X49302500Y-123130000D03*
D14*
X53112500Y-125670000D03*
D13*
X55652500Y-120590000D03*
D12*
X58192500Y-125670000D03*
%TD*%
D18*
%TO.C,C37*%
X66237500Y-57200000D03*
X64162500Y-57200000D03*
%TD*%
D12*
%TO.C,SW17*%
X48032500Y-144720000D03*
D13*
X49302500Y-142180000D03*
D14*
X53112500Y-144720000D03*
D13*
X55652500Y-139640000D03*
D12*
X58192500Y-144720000D03*
%TD*%
%TO.C,SW8*%
X105182500Y-87570000D03*
D13*
X106452500Y-85030000D03*
D14*
X110262500Y-87570000D03*
D13*
X112802500Y-82490000D03*
D12*
X115342500Y-87570000D03*
%TD*%
D18*
%TO.C,C32*%
X70511685Y-53934711D03*
X68436685Y-53934711D03*
%TD*%
%TO.C,C34*%
X74700000Y-53900000D03*
X72625000Y-53900000D03*
%TD*%
D12*
%TO.C,SW14*%
X67082500Y-125670000D03*
D13*
X68352500Y-123130000D03*
D14*
X72162500Y-125670000D03*
D13*
X74702500Y-120590000D03*
D12*
X77242500Y-125670000D03*
%TD*%
%TO.C,SW20*%
X105182500Y-144720000D03*
D13*
X106452500Y-142180000D03*
D14*
X110262500Y-144720000D03*
D13*
X112802500Y-139640000D03*
D12*
X115342500Y-144720000D03*
%TD*%
%TO.C,SW7*%
X86132500Y-87570000D03*
D13*
X87402500Y-85030000D03*
D14*
X91212500Y-87570000D03*
D13*
X93752500Y-82490000D03*
D12*
X96292500Y-87570000D03*
%TD*%
%TO.C,SW10*%
X67082500Y-106620000D03*
D13*
X68352500Y-104080000D03*
D14*
X72162500Y-106620000D03*
D13*
X74702500Y-101540000D03*
D12*
X77242500Y-106620000D03*
%TD*%
%TO.C,SW3*%
X86132500Y-68520000D03*
D13*
X87402500Y-65980000D03*
D14*
X91212500Y-68520000D03*
D13*
X93752500Y-63440000D03*
D12*
X96292500Y-68520000D03*
%TD*%
D10*
%TO.C,C28*%
X48300000Y-50262500D03*
X48300000Y-52337500D03*
%TD*%
D18*
%TO.C,C31*%
X70513666Y-51942517D03*
X68438666Y-51942517D03*
%TD*%
%TO.C,C35*%
X74704961Y-55883513D03*
X72629961Y-55883513D03*
%TD*%
%TO.C,C30*%
X70551166Y-49942517D03*
X68476166Y-49942517D03*
%TD*%
D12*
%TO.C,SW18*%
X67082500Y-144720000D03*
D13*
X68352500Y-142180000D03*
D14*
X72162500Y-144720000D03*
D13*
X74702500Y-139640000D03*
D12*
X77242500Y-144720000D03*
%TD*%
%TO.C,SW19*%
X86132500Y-144720000D03*
D13*
X87402500Y-142180000D03*
D14*
X91212500Y-144720000D03*
D13*
X93752500Y-139640000D03*
D12*
X96292500Y-144720000D03*
%TD*%
%TO.C,SW2*%
X67082500Y-68520000D03*
D13*
X68352500Y-65980000D03*
D14*
X72162500Y-68520000D03*
D13*
X74702500Y-63440000D03*
D12*
X77242500Y-68520000D03*
%TD*%
D18*
%TO.C,C33*%
X70503226Y-55908677D03*
X68428226Y-55908677D03*
%TD*%
D12*
%TO.C,SW12*%
X105182500Y-106620000D03*
D13*
X106452500Y-104080000D03*
D14*
X110262500Y-106620000D03*
D13*
X112802500Y-101540000D03*
D12*
X115342500Y-106620000D03*
%TD*%
D19*
%TO.C,J3*%
X38700000Y-67100000D03*
D20*
X38700000Y-64560000D03*
X38700000Y-62020000D03*
X38700000Y-59480000D03*
%TD*%
D19*
%TO.C,J2*%
X84825000Y-57100000D03*
D20*
X87365000Y-57100000D03*
%TD*%
M02*
