M48
; DRILL file KiCad 10.0.4 date 2026-08-08T14:25:08
; FORMAT={-:-/ absolute / metric / decimal}
; #@! TF.CreationDate,2026-08-08T14:25:08-05:00
; #@! TF.GenerationSoftware,Kicad,Pcbnew,10.0.4
; #@! TF.FileFunction,Plated,1,2,PTH
FMAT,2
METRIC
; #@! TA.AperFunction,Plated,PTH,ViaDrill
T1C0.300
; #@! TA.AperFunction,Plated,PTH,ComponentDrill
T2C0.600
; #@! TA.AperFunction,Plated,PTH,ComponentDrill
T3C1.000
%
G90
G05
T1
X41.1Y-68.3
X44.4Y-57.3
X44.8Y-62.0
X45.3Y-74.9
X45.3Y-94.1
X45.3Y-113.1
X45.3Y-132.1
X45.3Y-151.1
X47.35Y-150.5
X47.4Y-74.4
X47.4Y-93.3
X47.45Y-112.4
X47.55Y-131.5
X47.9Y-60.6
X48.8Y-75.1
X49.8Y-108.2
X49.9Y-89.2
X49.9Y-127.2
X49.9Y-146.3
X50.2Y-69.9
X50.8Y-47.7
X51.4Y-53.5
X51.4Y-55.0
X51.9Y-47.1
X53.7Y-60.0
X54.8Y-116.2
X54.8Y-135.3
X54.8Y-154.2
X54.9Y-78.1
X54.9Y-97.2
X55.1Y-47.6
X56.7Y-70.8
X56.7Y-89.8
X56.7Y-108.9
X56.7Y-127.9
X56.7Y-146.9
X57.2Y-46.6
X58.789Y-51.328
X60.0Y-76.4
X60.0Y-95.4
X60.0Y-114.5
X60.0Y-152.6
X60.1Y-133.4
X62.7Y-54.4
X64.2Y-52.5
X64.4Y-50.9
X65.8Y-50.6
X65.9Y-55.3
X67.15Y-74.45
X67.15Y-93.45
X67.15Y-112.55
X67.15Y-131.55
X67.15Y-150.55
X68.9Y-70.1
X68.9Y-89.2
X68.9Y-127.2
X69.0Y-108.2
X69.0Y-146.4
X71.9Y-47.3
X73.0Y-45.8
X73.1Y-58.4
X73.6Y-51.5
X73.8Y-116.2
X73.8Y-135.3
X73.8Y-154.2
X73.9Y-78.1
X73.9Y-97.2
X75.7Y-70.7
X75.7Y-89.7
X75.7Y-108.8
X75.7Y-127.8
X75.7Y-146.8
X78.3Y-56.0
X79.1Y-76.4
X79.1Y-95.4
X79.1Y-114.5
X79.1Y-152.6
X79.2Y-133.4
X80.0Y-50.1
X83.0Y-50.1
X86.15Y-74.35
X86.15Y-93.35
X86.15Y-112.45
X86.15Y-131.45
X86.15Y-150.45
X88.0Y-89.1
X88.0Y-127.2
X88.1Y-108.2
X88.1Y-146.3
X88.2Y-70.0
X92.8Y-116.2
X92.8Y-135.3
X92.8Y-154.2
X92.9Y-78.1
X92.9Y-97.2
X94.8Y-70.8
X94.8Y-89.8
X94.8Y-108.9
X94.8Y-127.9
X94.8Y-146.9
X98.3Y-76.4
X98.3Y-95.4
X98.3Y-114.5
X98.3Y-152.6
X98.4Y-133.4
X104.8Y-58.0
X105.25Y-74.45
X105.25Y-93.45
X105.25Y-112.55
X105.25Y-131.55
X105.25Y-150.55
X107.0Y-108.2
X107.1Y-70.0
X107.1Y-89.0
X107.1Y-146.3
X107.2Y-127.2
X111.8Y-116.2
X111.8Y-135.3
X111.8Y-154.2
X111.9Y-78.1
X111.9Y-97.2
X115.05Y-136.2
X115.1Y-79.0
X115.15Y-98.1
X115.25Y-117.2
X117.3Y-76.3
X117.3Y-95.3
X117.3Y-114.4
X117.3Y-152.5
X117.4Y-133.3
T3
X38.7Y-59.48
X38.7Y-62.02
X38.7Y-64.56
X38.7Y-67.1
X84.825Y-57.1
X87.365Y-57.1
T2
G00X77.38Y-46.125
M15
G01X77.38Y-46.925
M16
G05
G00X77.38Y-50.155
M15
G01X77.38Y-51.255
M16
G05
G00X86.02Y-46.125
M15
G01X86.02Y-46.925
M16
G05
G00X86.02Y-50.155
M15
G01X86.02Y-51.255
M16
G05
M30
