M48
; DRILL file KiCad 10.0.4 date 2026-08-08T14:25:08
; FORMAT={-:-/ absolute / metric / decimal}
; #@! TF.CreationDate,2026-08-08T14:25:08-05:00
; #@! TF.GenerationSoftware,Kicad,Pcbnew,10.0.4
; #@! TF.FileFunction,NonPlated,1,2,NPTH
FMAT,2
METRIC
; #@! TA.AperFunction,NonPlated,NPTH,ComponentDrill
T1C0.650
; #@! TA.AperFunction,NonPlated,NPTH,ComponentDrill
T2C1.750
; #@! TA.AperFunction,NonPlated,NPTH,ComponentDrill
T3C2.200
; #@! TA.AperFunction,NonPlated,NPTH,ComponentDrill
T4C3.050
; #@! TA.AperFunction,NonPlated,NPTH,ComponentDrill
T5C4.000
%
G90
G05
T1
X78.81Y-50.205
X84.59Y-50.205
T2
X48.032Y-68.52
X48.032Y-87.57
X48.032Y-106.62
X48.032Y-125.67
X48.032Y-144.72
X58.192Y-68.52
X58.192Y-87.57
X58.192Y-106.62
X58.192Y-125.67
X58.192Y-144.72
X67.082Y-68.52
X67.082Y-87.57
X67.082Y-106.62
X67.082Y-125.67
X67.082Y-144.72
X77.242Y-68.52
X77.242Y-87.57
X77.242Y-106.62
X77.242Y-125.67
X77.242Y-144.72
X86.132Y-68.52
X86.132Y-87.57
X86.132Y-106.62
X86.132Y-125.67
X86.132Y-144.72
X96.292Y-68.52
X96.292Y-87.57
X96.292Y-106.62
X96.292Y-125.67
X96.292Y-144.72
X105.182Y-68.52
X105.182Y-87.57
X105.182Y-106.62
X105.182Y-125.67
X105.182Y-144.72
X115.343Y-68.52
X115.343Y-87.57
X115.343Y-106.62
X115.343Y-125.67
X115.343Y-144.72
T3
X40.538Y-48.945
X40.538Y-154.295
X122.837Y-48.945
X122.837Y-154.295
T4
X49.302Y-65.98
X49.302Y-85.03
X49.302Y-104.08
X49.302Y-123.13
X49.302Y-142.18
X55.652Y-63.44
X55.652Y-82.49
X55.652Y-101.54
X55.652Y-120.59
X55.652Y-139.64
X68.352Y-65.98
X68.352Y-85.03
X68.352Y-104.08
X68.352Y-123.13
X68.352Y-142.18
X74.703Y-63.44
X74.703Y-82.49
X74.703Y-101.54
X74.703Y-120.59
X74.703Y-139.64
X87.402Y-65.98
X87.402Y-85.03
X87.402Y-104.08
X87.402Y-123.13
X87.402Y-142.18
X93.752Y-63.44
X93.752Y-82.49
X93.752Y-101.54
X93.752Y-120.59
X93.752Y-139.64
X106.453Y-65.98
X106.453Y-85.03
X106.453Y-104.08
X106.453Y-123.13
X106.453Y-142.18
X112.802Y-63.44
X112.802Y-82.49
X112.802Y-101.54
X112.802Y-120.59
X112.802Y-139.64
T5
X53.112Y-68.52
X53.112Y-87.57
X53.112Y-106.62
X53.112Y-125.67
X53.112Y-144.72
X72.162Y-68.52
X72.162Y-87.57
X72.162Y-106.62
X72.162Y-125.67
X72.162Y-144.72
X91.212Y-68.52
X91.212Y-87.57
X91.212Y-106.62
X91.212Y-125.67
X91.212Y-144.72
X110.262Y-68.52
X110.262Y-87.57
X110.262Y-106.62
X110.262Y-125.67
X110.262Y-144.72
M30
