%TF.GenerationSoftware,KiCad,Pcbnew,10.0.4*%
%TF.CreationDate,2026-08-08T14:24:34-05:00*%
%TF.ProjectId,macropad,6d616372-6f70-4616-942e-6b696361645f,rev?*%
%TF.SameCoordinates,Original*%
%TF.FileFunction,Legend,Top*%
%TF.FilePolarity,Positive*%
%FSLAX46Y46*%
G04 Gerber Fmt 4.6, Leading zero omitted, Abs format (unit mm)*
G04 Created by KiCad (PCBNEW 10.0.4) date 2026-08-08 14:24:34*
%MOMM*%
%LPD*%
G01*
G04 APERTURE LIST*
%ADD10C,0.120000*%
G04 APERTURE END LIST*
%TO.C,C27*%
D10*
X51035000Y-51038748D02*
X51035000Y-51561252D01*
X49565000Y-51038748D02*
X49565000Y-51561252D01*
%TO.C,SW1*%
X60212500Y-75620000D02*
X60212500Y-61420000D01*
X60212500Y-61420000D02*
X46012500Y-61420000D01*
X46012500Y-75620000D02*
X60212500Y-75620000D01*
X46012500Y-61420000D02*
X46012500Y-75620000D01*
%TO.C,SW5*%
X46012500Y-80470000D02*
X46012500Y-94670000D01*
X46012500Y-94670000D02*
X60212500Y-94670000D01*
X60212500Y-80470000D02*
X46012500Y-80470000D01*
X60212500Y-94670000D02*
X60212500Y-80470000D01*
%TO.C,SW9*%
X60212500Y-113720000D02*
X60212500Y-99520000D01*
X60212500Y-99520000D02*
X46012500Y-99520000D01*
X46012500Y-113720000D02*
X60212500Y-113720000D01*
X46012500Y-99520000D02*
X46012500Y-113720000D01*
%TO.C,SW11*%
X84112500Y-99520000D02*
X84112500Y-113720000D01*
X84112500Y-113720000D02*
X98312500Y-113720000D01*
X98312500Y-99520000D02*
X84112500Y-99520000D01*
X98312500Y-113720000D02*
X98312500Y-99520000D01*
%TO.C,C36*%
X45565000Y-51038748D02*
X45565000Y-51561252D01*
X47035000Y-51038748D02*
X47035000Y-51561252D01*
%TO.C,C29*%
X69774918Y-47207517D02*
X69252414Y-47207517D01*
X69774918Y-48677517D02*
X69252414Y-48677517D01*
%TO.C,SW4*%
X103162500Y-61420000D02*
X103162500Y-75620000D01*
X103162500Y-75620000D02*
X117362500Y-75620000D01*
X117362500Y-61420000D02*
X103162500Y-61420000D01*
X117362500Y-75620000D02*
X117362500Y-61420000D01*
%TO.C,SW6*%
X65062500Y-80470000D02*
X65062500Y-94670000D01*
X65062500Y-94670000D02*
X79262500Y-94670000D01*
X79262500Y-80470000D02*
X65062500Y-80470000D01*
X79262500Y-94670000D02*
X79262500Y-80470000D01*
%TO.C,SW15*%
X84112500Y-118570000D02*
X84112500Y-132770000D01*
X84112500Y-132770000D02*
X98312500Y-132770000D01*
X98312500Y-118570000D02*
X84112500Y-118570000D01*
X98312500Y-132770000D02*
X98312500Y-118570000D01*
%TO.C,SW16*%
X103162500Y-118570000D02*
X103162500Y-132770000D01*
X103162500Y-132770000D02*
X117362500Y-132770000D01*
X117362500Y-118570000D02*
X103162500Y-118570000D01*
X117362500Y-132770000D02*
X117362500Y-118570000D01*
%TO.C,SW13*%
X46012500Y-118570000D02*
X46012500Y-132770000D01*
X46012500Y-132770000D02*
X60212500Y-132770000D01*
X60212500Y-118570000D02*
X46012500Y-118570000D01*
X60212500Y-132770000D02*
X60212500Y-118570000D01*
%TO.C,C37*%
X65461252Y-56465000D02*
X64938748Y-56465000D01*
X65461252Y-57935000D02*
X64938748Y-57935000D01*
%TO.C,SW17*%
X46012500Y-137620000D02*
X46012500Y-151820000D01*
X46012500Y-151820000D02*
X60212500Y-151820000D01*
X60212500Y-137620000D02*
X46012500Y-137620000D01*
X60212500Y-151820000D02*
X60212500Y-137620000D01*
%TO.C,SW8*%
X103162500Y-80470000D02*
X103162500Y-94670000D01*
X103162500Y-94670000D02*
X117362500Y-94670000D01*
X117362500Y-80470000D02*
X103162500Y-80470000D01*
X117362500Y-94670000D02*
X117362500Y-80470000D01*
%TO.C,C32*%
X69735437Y-53199711D02*
X69212933Y-53199711D01*
X69735437Y-54669711D02*
X69212933Y-54669711D01*
%TO.C,C34*%
X73923752Y-53165000D02*
X73401248Y-53165000D01*
X73923752Y-54635000D02*
X73401248Y-54635000D01*
%TO.C,SW14*%
X65062500Y-118570000D02*
X65062500Y-132770000D01*
X65062500Y-132770000D02*
X79262500Y-132770000D01*
X79262500Y-118570000D02*
X65062500Y-118570000D01*
X79262500Y-132770000D02*
X79262500Y-118570000D01*
%TO.C,SW20*%
X103162500Y-137620000D02*
X103162500Y-151820000D01*
X103162500Y-151820000D02*
X117362500Y-151820000D01*
X117362500Y-137620000D02*
X103162500Y-137620000D01*
X117362500Y-151820000D02*
X117362500Y-137620000D01*
%TO.C,SW7*%
X84112500Y-80470000D02*
X84112500Y-94670000D01*
X84112500Y-94670000D02*
X98312500Y-94670000D01*
X98312500Y-80470000D02*
X84112500Y-80470000D01*
X98312500Y-94670000D02*
X98312500Y-80470000D01*
%TO.C,SW10*%
X65062500Y-99520000D02*
X65062500Y-113720000D01*
X65062500Y-113720000D02*
X79262500Y-113720000D01*
X79262500Y-99520000D02*
X65062500Y-99520000D01*
X79262500Y-113720000D02*
X79262500Y-99520000D01*
%TO.C,SW3*%
X84112500Y-61420000D02*
X84112500Y-75620000D01*
X84112500Y-75620000D02*
X98312500Y-75620000D01*
X98312500Y-61420000D02*
X84112500Y-61420000D01*
X98312500Y-75620000D02*
X98312500Y-61420000D01*
%TO.C,C28*%
X47565000Y-51038748D02*
X47565000Y-51561252D01*
X49035000Y-51038748D02*
X49035000Y-51561252D01*
%TO.C,C31*%
X69737418Y-51207517D02*
X69214914Y-51207517D01*
X69737418Y-52677517D02*
X69214914Y-52677517D01*
%TO.C,C35*%
X73928713Y-55148513D02*
X73406209Y-55148513D01*
X73928713Y-56618513D02*
X73406209Y-56618513D01*
%TO.C,C30*%
X69774918Y-49207517D02*
X69252414Y-49207517D01*
X69774918Y-50677517D02*
X69252414Y-50677517D01*
%TO.C,SW18*%
X65062500Y-137620000D02*
X65062500Y-151820000D01*
X65062500Y-151820000D02*
X79262500Y-151820000D01*
X79262500Y-137620000D02*
X65062500Y-137620000D01*
X79262500Y-151820000D02*
X79262500Y-137620000D01*
%TO.C,SW19*%
X84112500Y-137620000D02*
X84112500Y-151820000D01*
X84112500Y-151820000D02*
X98312500Y-151820000D01*
X98312500Y-137620000D02*
X84112500Y-137620000D01*
X98312500Y-151820000D02*
X98312500Y-137620000D01*
%TO.C,SW2*%
X65062500Y-61420000D02*
X65062500Y-75620000D01*
X65062500Y-75620000D02*
X79262500Y-75620000D01*
X79262500Y-61420000D02*
X65062500Y-61420000D01*
X79262500Y-75620000D02*
X79262500Y-61420000D01*
%TO.C,C33*%
X69726978Y-55173677D02*
X69204474Y-55173677D01*
X69726978Y-56643677D02*
X69204474Y-56643677D01*
%TO.C,SW12*%
X103162500Y-99520000D02*
X103162500Y-113720000D01*
X103162500Y-113720000D02*
X117362500Y-113720000D01*
X117362500Y-99520000D02*
X103162500Y-99520000D01*
X117362500Y-113720000D02*
X117362500Y-99520000D01*
%TD*%
M02*
